<svg width="40" height="34" viewBox="0 0 40 34" fill="none" xmlns="http://www.w3.org/2000/svg">
<path d="M30 0C31.3261 0 32.5979 0.497493 33.5355 1.38304C34.4732 2.26858 35 3.46963 35 4.72198C36.3261 4.72198 37.5979 5.21947 38.5355 6.10501C39.4732 6.99055 40 8.19161 40 9.44395V28.3319C40 29.5842 39.4732 30.7853 38.5355 31.6708C37.5979 32.5563 36.3261 33.0538 35 33.0538H10C8.67392 33.0538 7.40215 32.5563 6.46447 31.6708C5.52678 30.7853 5 29.5842 5 28.3319C3.67392 28.3319 2.40215 27.8344 1.46447 26.9488C0.526784 26.0633 0 24.8622 0 23.6099V4.72198C0 3.46963 0.526784 2.26858 1.46447 1.38304C2.40215 0.497493 3.67392 0 5 0H30ZM5 25.9709V9.44395C5 8.19161 5.52678 6.99055 6.46447 6.10501C7.40215 5.21947 8.67392 4.72198 10 4.72198H32.5C32.5 4.0958 32.2366 3.49528 31.7678 3.05251C31.2989 2.60973 30.663 2.36099 30 2.36099H5C4.33696 2.36099 3.70107 2.60973 3.23223 3.05251C2.76339 3.49528 2.5 4.0958 2.5 4.72198V23.6099C2.5 24.2361 2.76339 24.8366 3.23223 25.2794C3.70107 25.7221 4.33696 25.9709 5 25.9709ZM7.5 16.5269V28.3319C7.5 28.958 7.76339 29.5586 8.23223 30.0013C8.70107 30.4441 9.33696 30.6928 10 30.6928H35C35.663 30.6928 36.2989 30.4441 36.7678 30.0013C37.2366 29.5586 37.5 28.958 37.5 28.3319V16.5269H7.5ZM37.5 14.1659V9.44395C37.5 8.81778 37.2366 8.21725 36.7678 7.77448C36.2989 7.33171 35.663 7.08297 35 7.08296H10C9.33696 7.08296 8.70107 7.33171 8.23223 7.77448C7.76339 8.21725 7.5 8.81778 7.5 9.44395V14.1659H37.5Z" fill="#EAB308"/>
</svg>
